<svg xmlns="http://www.w3.org/2000/svg" width="50" height="50" style="fill: #72767d" viewBox="0 0 50 50">
  <path d="M28.653 40.926a.666.666 0 0 0-.942 0l-.71.71-.71-.71a.666.666 0 1 0-.942.942l.71.71-.71.71a.667.667 0 1 0 .942.942l.71-.71.71.71a.665.665 0 0 0 .942 0 .667.667 0 0 0 0-.942l-.71-.71.71-.71a.666.666 0 0 0 0-.942ZM6.682 9.564a.665.665 0 0 0 .943 0l.71-.71.709.71a.665.665 0 0 0 .943 0 .667.667 0 0 0 0-.943l-.71-.71.71-.71a.667.667 0 0 0-.943-.942l-.71.71-.71-.71a.667.667 0 1 0-.942.943l.71.71-.71.709a.667.667 0 0 0 0 .943Zm34.986-1.99a.667.667 0 1 0 0-1.333.667.667 0 0 0 0 1.333Zm-35.334 28a.667.667 0 1 0 0-1.333.667.667 0 0 0 0 1.333Zm.667-18.666a.667.667 0 1 0 0-1.334.667.667 0 0 0 0 1.334Zm34.667 22.666a.667.667 0 1 0 0-1.333.667.667 0 0 0 0 1.333Zm-18-32.666a.667.667 0 1 0 0-1.334.667.667 0 0 0 0 1.334Zm19.349 12.901c-1.233-2.028-3.28-3.394-6.085-4.06-2.7-.64-5.636-.467-8.492.501-6.766 2.295-10.04 5.371-9.217 8.663.29 1.161.913 1.993 1.85 2.472 2.01 1.028 4.725-.037 4.84-.083a.666.666 0 0 0-.495-1.239c-.022.01-2.274.886-3.742.133-.585-.3-.964-.826-1.16-1.606-.882-3.532 5.548-6.126 8.353-7.076 2.619-.889 5.3-1.05 7.755-.467 2.445.58 4.213 1.743 5.254 3.455 1.294 2.128 1.47 5.128.523 8.917a.667.667 0 0 0 1.293.323c1.037-4.148.81-7.49-.677-9.933Z"/>
  <path d="M18.325 35.36c2.273 0 4.599-.547 6.81-1.608 6.44-3.093 9.32-6.541 8.106-9.71-.428-1.117-1.146-1.868-2.133-2.23-2.119-.778-4.687.606-4.795.665a.666.666 0 0 0 .64 1.17c.022-.012 2.15-1.154 3.698-.582.617.227 1.057.703 1.344 1.454 1.302 3.4-4.768 6.749-7.438 8.031-2.493 1.197-5.136 1.68-7.643 1.397-2.498-.282-4.393-1.223-5.633-2.797-1.54-1.957-2.076-4.913-1.592-8.788a.667.667 0 0 0-1.323-.166c-.53 4.242.099 7.532 1.868 9.778 1.469 1.865 3.665 2.975 6.53 3.298.516.058 1.037.087 1.56.087Zm5.98-22.613a.667.667 0 0 0 .895.298c3.287-1.647 8.685-3.187 15.733-1.174a.667.667 0 0 0 .366-1.281c-7.46-2.133-13.198-.49-16.696 1.263a.667.667 0 0 0-.298.894Zm-4.933 2.869a.667.667 0 0 0 .995.887c.009-.01.883-.978 2.514-2.094a.667.667 0 0 0-.752-1.1c-1.778 1.215-2.718 2.264-2.758 2.307Z"/>
  <path d="M16.005 25.417a.668.668 0 0 0 .475-1.135c-.066-.067-1.613-1.675-1.527-4.451.089-2.896 1.893-5.948 5.363-9.07a.666.666 0 1 0-.892-.991c-3.765 3.388-5.718 6.772-5.805 10.058-.088 3.35 1.835 5.313 1.917 5.395.13.13.3.194.47.194Zm20.92-.279a.668.668 0 0 0-.252.908c.146.26 3.492 6.44-3.754 13.685a.667.667 0 0 0 .943.943c4.152-4.152 5.024-8.062 5.024-10.611 0-2.801-1.01-4.602-1.054-4.677a.666.666 0 0 0-.907-.248Zm-8.417 11.331a.667.667 0 0 0-.925-.186c-4.262 2.837-10.337 5.554-15.07 2.4a.666.666 0 1 0-.739 1.109c1.753 1.169 3.642 1.642 5.552 1.642 3.91 0 7.906-1.984 10.996-4.04a.667.667 0 0 0 .186-.925Zm5.354-4.463a.666.666 0 0 0-.943 0c-.013.013-1.33 1.323-3.373 2.878a.667.667 0 1 0 .807 1.061c2.115-1.609 3.453-2.94 3.509-2.996a.667.667 0 0 0 0-.943Z"/>
</svg>
